<?xml version="1.0" encoding="UTF-8"?>
<svg xmlns="http://www.w3.org/2000/svg" viewBox="0 0 676.71 295.29" width="676.71" height="295.29">
  <path d="M166.21875 -45.75L166.21875 -45.75L166.21875 -45.75Q166.359375 -35.15625 161.9296875 -24.1640625Q157.5 -13.171875 150.7265625 -2.5078125Q143.953125 8.15625 137.0625 17.8125L137.0625 17.8125Q133.03125 23.53125 129.5625 28.6875L129.5625 28.6875Q118.546875 43.21875 107.203125 57.421875L107.203125 57.421875Q105.609375 59.671875 103.59375 61.6875L103.59375 61.6875Q101.765625 63.5625 100.1953125 65.6015625Q98.625 67.640625 97.921875 70.171875L97.921875 70.171875Q100.6875 69.46875 103.1484375 68.109375Q105.609375 66.75 107.953125 65.203125L107.953125 65.203125Q109.921875 63.890625 111.9375 62.71875L111.9375 62.71875Q118.359375 58.734375 125.015625 55.171875L125.015625 55.171875Q126.375 54.5625 129.984375 52.265625L129.984375 52.265625Q133.5 50.109375 137.53125 47.8359375Q141.5625 45.5625 144.609375 44.6015625Q147.65625 43.640625 148.21875 45.46875L148.21875 45.46875Q148.40625 46.40625 147.703125 47.0390625Q147 47.671875 146.203125 48L146.203125 48Q136.078125 52.03125 126.609375 57.375Q117.140625 62.71875 107.859375 68.53125L107.859375 68.53125Q99.9375 73.453125 91.875 78.09375L91.875 78.09375Q86.203125 81.703125 81.5625 86.4140625Q76.921875 91.125 72.65625 96.234375L72.65625 96.234375Q67.21875 102.84375 60.984375 108.65625L60.984375 108.65625Q55.78125 113.34375 50.71875 118.21875L50.71875 118.21875Q41.4375 127.265625 31.3125 135.375L31.3125 135.375Q28.875 137.25 26.4375 139.21875L26.4375 139.21875Q21.75 143.0625 16.8046875 146.4375Q11.859375 149.8125 6.140625 151.734375L6.140625 151.734375Q3.75 152.71875 1.734375 151.921875Q-0.28125 151.125 0.46875 148.3125L0.46875 148.3125Q2.671875 144.46875 5.53125 141.046875Q8.390625 137.625 11.484375 134.4375L11.484375 134.4375Q20.53125 124.875 33.703125 114.09375Q46.875 103.3125 56.25 97.5L56.25 97.5Q61.6875 93.75 67.453125 90.375L67.453125 90.375Q74.203125 86.4375 80.5078125 81.9140625Q86.8125 77.390625 91.6875 71.203125L91.6875 71.203125Q105.75 54.65625 119.1328125 37.5Q132.515625 20.34375 144.140625 1.96875L144.140625 1.96875Q145.875 -0.984375 147.65625 -3.9375L147.65625 -3.9375Q151.640625 -10.265625 155.1796875 -16.8984375Q158.71875 -23.53125 160.78125 -30.5859375Q162.84375 -37.640625 162.375 -45.234375L162.375 -45.234375Q162.46875 -50.765625 160.5703125 -55.6875Q158.671875 -60.609375 153.609375 -63.46875L153.609375 -63.46875Q144.984375 -68.484375 135.421875 -68.625Q125.859375 -68.765625 116.2734375 -65.4375Q106.6875 -62.109375 98.0859375 -56.6953125Q89.484375 -51.28125 82.78125 -45.234375L82.78125 -45.234375Q69.421875 -32.34375 57.890625 -16.7578125Q46.359375 -1.171875 37.03125 15.09375L37.03125 15.09375Q37.03125 15.09375 36.984375 15.046875L36.984375 15.046875Q36.984375 15.046875 36.984375 15L36.984375 15Q27.890625 29.625 20.953125 45.375L20.953125 45.375Q17.15625 52.875 14.25 60.75L14.25 60.75Q12.515625 65.34375 10.59375 69.84375L10.59375 69.84375Q8.625 72.84375 7.2421875 71.9296875Q5.859375 71.015625 6.75 67.875L6.75 67.875Q10.921875 57.28125 16.078125 47.15625L16.078125 47.15625Q18.09375 43.03125 20.0625 38.90625L20.0625 38.90625Q24.046875 30.46875 27.375 21.75L27.375 21.75Q29.296875 16.828125 31.359375 11.90625L31.359375 11.90625Q34.59375 2.90625 37.96875 -6.09375L37.96875 -6.09375Q43.828125 -21.75 49.21875 -37.546875Q54.609375 -53.34375 58.59375 -69.5625L58.59375 -69.5625Q59.015625 -71.765625 60.46875 -73.5L60.46875 -73.5Q61.3125 -74.296875 62.0625 -73.9921875Q62.8125 -73.6875 63.2109375 -72.796875Q63.609375 -71.90625 63.328125 -71.0625L63.328125 -71.0625Q52.078125 -34.640625 38.671875 1.03125L38.671875 1.03125Q37.125 4.6875 36.703125 8.625L36.703125 8.625Q45.1875 -4.921875 57.09375 -20.484375Q69 -36.046875 81.5625 -47.8125L81.5625 -47.8125Q81.5625 -47.8125 81.609375 -47.765625L81.609375 -47.765625Q81.609375 -47.765625 81.609375 -47.765625L81.609375 -47.765625Q92.859375 -58.359375 107.34375 -64.9453125Q121.828125 -71.53125 137.34375 -72.234375L137.34375 -72.234375Q145.5 -71.109375 151.875 -68.3203125Q158.25 -65.53125 162 -60.140625Q165.75 -54.75 166.21875 -45.75Z" stroke-width="1.25" fill="none" stroke="black" stroke-linecap="round" stroke-linejoin="round" transform="translate(15.734639830508474 127.0087890625)"/>
  <path d="M35.015625 12.1875L35.015625 12.1875L35.015625 12.1875Q35.578125 11.203125 36.140625 10.21875L36.140625 10.21875Q36.421875 9.5625 36.5625 8.90625L36.5625 8.90625Q35.4375 10.359375 35.015625 12.1875Z" stroke-width="1.25" fill="none" stroke="black" stroke-linecap="round" stroke-linejoin="round" transform="translate(15.734639830508474 127.0087890625)"/>
  <path d="M42.234375 122.484375L42.234375 122.484375L42.234375 122.484375Q55.546875 109.546875 68.34375 96.09375L68.34375 96.09375Q70.171875 94.265625 71.390625 91.921875L71.390625 91.921875Q68.015625 92.953125 65.203125 95.015625L65.203125 95.015625Q55.03125 101.953125 44.859375 108.984375L44.859375 108.984375Q42.328125 110.71875 39.890625 112.640625L39.890625 112.640625Q39.75 112.78125 39.609375 112.875L39.609375 112.875Q34.875 116.625 30.28125 120.375L30.28125 120.375Q27.140625 123 22.40625 127.03125L22.40625 127.03125Q22.40625 127.03125 22.40625 127.03125L22.40625 127.03125Q22.40625 127.03125 22.40625 127.03125L22.40625 127.03125Q20.578125 128.90625 18.703125 130.78125L18.703125 130.78125Q18.140625 131.34375 17.578125 131.953125L17.578125 131.953125Q16.453125 133.078125 15.328125 134.203125L15.328125 134.203125Q12.75 136.828125 10.171875 139.546875L10.171875 139.546875Q8.390625 141.46875 6.890625 143.671875L6.890625 143.671875Q6.328125 144.609375 6 145.6875L6 145.6875Q5.90625 145.875 5.8125 146.0625L5.8125 146.0625Q5.765625 146.296875 5.7890625 146.53125Q5.8125 146.765625 5.90625 146.953125L5.90625 146.953125Q6.375 147.84375 7.359375 147.65625L7.359375 147.65625Q9.984375 147 12.28125 145.734375Q14.578125 144.46875 16.78125 142.96875L16.78125 142.96875Q24.84375 137.53125 32.15625 131.109375L32.15625 131.109375Q34.078125 129.46875 36 127.828125L36 127.828125Q37.078125 126.890625 38.203125 125.953125L38.203125 125.953125Q38.8125 125.4375 39.375 124.96875L39.375 124.96875Q40.828125 123.75 42.234375 122.484375Z" stroke-width="1.25" fill="none" stroke="black" stroke-linecap="round" stroke-linejoin="round" transform="translate(15.734639830508474 127.0087890625)"/>
  <path d="M162.234375 50.671875L162.234375 50.671875Q162.46875 50.625 162.75 50.625L162.75 50.625Q163.546875 50.53125 164.4375 50.34375L164.4375 50.34375Q167.15625 49.59375 169.59375 48.1875L169.59375 48.1875Q170.671875 47.578125 171.703125 46.921875L171.703125 46.921875Q172.828125 46.265625 174 45.609375L174 45.609375Q174.09375 45.5625 174.1875 45.46875L174.1875 45.46875Q175.40625 44.71875 176.765625 44.34375L176.765625 44.34375Q177.328125 44.203125 177.65625 44.625L177.65625 44.625Q177.9375 45.09375 177.609375 45.5625L177.609375 45.5625Q177.46875 45.796875 177.28125 45.9375L177.28125 45.9375Q173.296875 48.65625 168.9375 50.765625L168.9375 50.765625Q166.640625 51.890625 164.15625 52.546875L164.15625 52.546875Q162.140625 53.0625 160.125 52.5L160.125 52.5Q160.03125 52.453125 159.9375 52.453125L159.9375 52.453125Q159.28125 52.265625 158.671875 52.03125L158.671875 52.03125Q156.703125 51.234375 155.765625 49.3125L155.765625 49.3125Q155.53125 48.75 155.390625 48.09375L155.390625 48.09375Q155.203125 47.25 154.6875 46.5L154.6875 46.5Q154.359375 46.078125 153.796875 46.265625L153.796875 46.265625Q153.328125 46.40625 152.953125 46.734375L152.953125 46.734375Q150.84375 48.65625 149.15625 50.859375L149.15625 50.859375Q146.765625 53.953125 144 56.625L144 56.625Q143.53125 57.140625 143.015625 57.65625L143.015625 57.65625Q142.59375 58.03125 142.125 58.359375L142.125 58.359375Q141.9375 58.453125 141.796875 58.546875L141.796875 58.546875Q141.375 58.828125 140.7890625 58.8046875Q140.203125 58.78125 139.875 58.546875L139.875 58.546875Q138.984375 57.84375 139.03125 56.765625L139.03125 56.765625Q139.03125 56.25 139.171875 55.78125L139.171875 55.78125Q139.171875 55.78125 139.21875 55.78125L139.21875 55.78125Q139.40625 55.03125 139.734375 54.375L139.734375 54.375Q143.15625 48.046875 148.171875 42.9375L148.171875 42.9375Q149.296875 41.859375 150.5625 41.0625L150.5625 41.0625Q152.296875 39.84375 154.453125 40.078125L154.453125 40.078125Q155.625 40.265625 156.796875 40.5L156.796875 40.5Q156.890625 40.5 156.9375 40.5L156.9375 40.5Q157.546875 40.640625 157.921875 41.1796875Q158.296875 41.71875 158.25 42.421875L158.25 42.421875Q158.109375 43.21875 158.015625 43.96875L158.015625 43.96875Q157.96875 44.203125 157.921875 44.4375L157.921875 44.4375Q157.875 44.71875 157.828125 45L157.828125 45Q157.734375 45.46875 157.6875 45.9375L157.6875 45.9375Q157.5 47.71875 158.578125 49.03125Q159.65625 50.34375 161.4375 50.578125L161.4375 50.578125Q161.53125 50.578125 161.8125 50.625L161.8125 50.625Q161.953125 50.625 162.234375 50.671875L162.234375 50.671875Z" stroke-width="1.25" fill="none" stroke="black" stroke-linecap="round" stroke-linejoin="round" transform="translate(15.734639830508474 127.0087890625)"/>
  <path d="M150.9375 43.359375L150.9375 43.359375Q150.84375 43.40625 150.703125 43.453125L150.703125 43.453125Q150.328125 43.59375 149.8125 43.875L149.8125 43.875Q147.609375 45.609375 146.0625 48L146.0625 48Q144.140625 50.71875 142.359375 53.484375L142.359375 53.484375Q142.03125 54 141.796875 54.609375L141.796875 54.609375Q141.75 54.75 141.703125 54.890625L141.703125 54.890625Q141.421875 55.5 142.03125 55.6875L142.03125 55.6875Q142.125 55.6875 142.265625 55.6640625Q142.40625 55.640625 142.5 55.546875L142.5 55.546875Q144.5625 54 146.109375 51.984375L146.109375 51.984375Q148.3125 49.171875 150.75 46.546875L150.75 46.546875Q151.265625 45.984375 151.6875 45.328125L151.6875 45.328125Q151.828125 45 151.96875 44.671875L151.96875 44.671875Q152.015625 44.53125 152.0625 44.390625L152.0625 44.390625Q152.15625 44.015625 151.828125 43.6640625Q151.5 43.3125 150.9375 43.359375L150.9375 43.359375Z" stroke-width="1.25" fill="none" stroke="black" stroke-linecap="round" stroke-linejoin="round" transform="translate(15.734639830508474 127.0087890625)"/>
  <path d="M198.234375 55.03125L198.234375 55.03125Q195.140625 54.796875 193.21875 53.109375L193.21875 53.109375Q192.046875 52.125 191.203125 50.8125L191.203125 50.8125Q190.59375 49.828125 190.03125 48.84375L190.03125 48.84375Q189.609375 48.046875 189.140625 47.296875L189.140625 47.296875Q188.859375 46.78125 188.484375 46.3125L188.484375 46.3125Q188.390625 46.171875 188.296875 46.078125L188.296875 46.078125Q187.828125 45.515625 186.9609375 45.375Q186.09375 45.234375 185.484375 45.65625L185.484375 45.65625Q185.390625 45.75 185.25 45.84375L185.25 45.84375Q184.921875 46.03125 184.6875 46.265625L184.6875 46.265625Q182.109375 48.75 180.140625 51.703125L180.140625 51.703125Q179.4375 52.828125 178.734375 53.90625L178.734375 53.90625Q178.171875 54.75 177.65625 55.59375L177.65625 55.59375Q176.015625 58.171875 174 60.46875L174 60.46875Q173.4375 61.03125 172.6875 61.171875L172.6875 61.171875Q172.3125 61.265625 171.9375 61.078125Q171.5625 60.890625 171.421875 60.515625L171.421875 60.515625Q171.09375 59.8125 171.234375 59.0625L171.234375 59.0625Q171.75 56.53125 172.6875 54.1875L172.6875 54.1875Q173.34375 52.59375 174 51L174 51Q174.984375 48.5625 175.96875 46.171875L175.96875 46.171875Q176.25 45.5625 176.484375 44.953125L176.484375 44.953125Q177.65625 42.28125 178.59375 39.515625L178.59375 39.515625Q178.96875 38.296875 179.53125 37.171875L179.53125 37.171875Q181.546875 32.71875 182.765625 28.03125L182.765625 28.03125Q183.046875 26.8125 183.796875 25.734375L183.796875 25.734375Q183.984375 25.5 184.4296875 25.4296875Q184.875 25.359375 185.15625 25.5L185.15625 25.5Q185.296875 25.59375 185.390625 25.6875Q185.484375 25.78125 185.53125 25.875L185.53125 25.875Q185.625 26.625 185.625 27.375L185.625 27.375Q185.578125 27.890625 185.34375 28.359375L185.34375 28.359375Q184.03125 31.078125 182.953125 33.9375L182.953125 33.9375Q182.484375 35.15625 182.015625 36.328125L182.015625 36.328125Q180 41.296875 177.890625 46.21875L177.890625 46.21875Q176.0625 50.4375 174.703125 54.796875L174.703125 54.796875Q174.5625 55.40625 175.078125 55.5L175.078125 55.5Q175.21875 55.5 175.3359375 55.4296875Q175.453125 55.359375 175.546875 55.265625L175.546875 55.265625Q178.171875 51.5625 180.796875 47.765625L180.796875 47.765625Q182.4375 45.46875 184.6875 43.78125L184.6875 43.78125Q185.53125 43.171875 186.46875 42.796875L186.46875 42.796875Q188.0625 42.234375 189.328125 43.359375L189.328125 43.359375Q190.03125 44.0625 190.59375 44.953125L190.59375 44.953125Q190.96875 45.609375 191.296875 46.359375L191.296875 46.359375Q191.484375 46.828125 191.671875 47.25L191.671875 47.25Q191.765625 47.390625 191.859375 47.578125L191.859375 47.578125Q192.328125 48.5625 192.890625 49.5L192.890625 49.5Q195.515625 53.8125 200.8125 52.59375L200.8125 52.59375Q201.890625 52.359375 202.921875 51.890625L202.921875 51.890625Q203.0625 51.84375 203.203125 51.796875L203.203125 51.796875Q207.703125 50.015625 212.0625 47.859375L212.0625 47.859375Q215.71875 46.03125 219.5625 44.671875L219.5625 44.671875Q220.5 44.34375 221.53125 44.25L221.53125 44.25Q222.046875 44.203125 222.515625 44.390625L222.515625 44.390625Q223.03125 44.578125 223.078125 45.140625L223.078125 45.140625Q223.078125 45.65625 222.609375 45.984375L222.609375 45.984375Q222.5625 45.984375 222.5625 46.03125L222.5625 46.03125Q222.375 46.171875 222.1875 46.21875L222.1875 46.21875Q215.71875 47.8125 209.8125 50.90625L209.8125 50.90625Q206.625 52.546875 203.296875 53.8125L203.296875 53.8125Q201.65625 54.421875 199.921875 54.84375L199.921875 54.84375Q199.125 54.984375 198.5625 54.984375L198.5625 54.984375Q198.375 54.984375 198.234375 55.03125L198.234375 55.03125Z" stroke-width="1.25" fill="none" stroke="black" stroke-linecap="round" stroke-linejoin="round" transform="translate(15.734639830508474 127.0087890625)"/>
  <path d="M220.03125 51.046875L220.03125 51.046875Q220.265625 47.15625 222.046875 44.109375L222.046875 44.109375Q222.28125 43.78125 222.5625 43.546875L222.5625 43.546875Q222.65625 43.453125 222.75 43.359375L222.75 43.359375Q222.9375 43.125 223.3125 43.125Q223.6875 43.125 224.0390625 43.3125Q224.390625 43.5 224.484375 43.734375L224.484375 43.734375Q224.765625 44.53125 224.53125 45.234375L224.53125 45.234375Q224.15625 45.984375 223.734375 46.6875L223.734375 46.6875Q223.40625 47.296875 223.078125 47.90625L223.078125 47.90625Q222.234375 49.546875 222.46875 51.375L222.46875 51.375Q222.75 53.0625 224.53125 53.296875L224.53125 53.296875Q225.28125 53.34375 226.03125 53.203125L226.03125 53.203125Q228.984375 52.5 231.75 51.09375L231.75 51.09375Q239.34375 47.53125 247.125 44.34375L247.125 44.34375Q247.828125 44.0625 248.578125 44.203125L248.578125 44.203125Q249.140625 44.34375 249.28125 44.859375L249.28125 44.859375Q249.375 45.421875 248.953125 45.796875L248.953125 45.796875Q248.578125 46.125 248.109375 46.3125L248.109375 46.3125Q241.40625 48.75 235.03125 51.9375L235.03125 51.9375Q232.734375 53.015625 230.390625 54L230.390625 54Q227.8125 55.078125 225 55.5L225 55.5Q224.25 55.640625 223.5 55.59375L223.5 55.59375Q220.546875 55.171875 220.078125 52.359375L220.078125 52.359375Q220.03125 51.796875 220.03125 51.328125L220.03125 51.328125Q220.03125 51.1875 220.03125 51.046875L220.03125 51.046875Z" stroke-width="1.25" fill="none" stroke="black" stroke-linecap="round" stroke-linejoin="round" transform="translate(15.734639830508474 127.0087890625)"/>
  <path d="M226.546875 34.453125L226.546875 34.453125Q226.453125 33.703125 226.96875 33.1171875Q227.484375 32.53125 228.28125 32.53125L228.28125 32.53125Q228.796875 32.53125 229.078125 33L229.078125 33Q229.078125 33 229.078125 33L229.078125 33Q229.125 33.140625 229.171875 33.2578125Q229.21875 33.375 229.21875 33.46875L229.21875 33.46875Q229.21875 34.21875 229.125 34.921875L229.125 34.921875Q229.03125 35.25 228.6796875 35.4609375Q228.328125 35.671875 227.953125 35.625L227.953125 35.625Q227.4375 35.578125 227.0390625 35.25Q226.640625 34.921875 226.546875 34.453125L226.546875 34.453125Z" stroke-width="1.25" fill="none" stroke="black" stroke-linecap="round" stroke-linejoin="round" transform="translate(15.734639830508474 127.0087890625)"/>
  <path d="M263.71875 50.671875L263.71875 50.671875Q263.953125 50.625 264.234375 50.625L264.234375 50.625Q265.03125 50.53125 265.921875 50.34375L265.921875 50.34375Q268.640625 49.59375 271.078125 48.1875L271.078125 48.1875Q272.15625 47.578125 273.1875 46.921875L273.1875 46.921875Q274.3125 46.265625 275.484375 45.609375L275.484375 45.609375Q275.578125 45.5625 275.671875 45.46875L275.671875 45.46875Q276.890625 44.71875 278.25 44.34375L278.25 44.34375Q278.8125 44.203125 279.140625 44.625L279.140625 44.625Q279.421875 45.09375 279.09375 45.5625L279.09375 45.5625Q278.953125 45.796875 278.765625 45.9375L278.765625 45.9375Q274.78125 48.65625 270.421875 50.765625L270.421875 50.765625Q268.125 51.890625 265.640625 52.546875L265.640625 52.546875Q263.625 53.0625 261.609375 52.5L261.609375 52.5Q261.515625 52.453125 261.421875 52.453125L261.421875 52.453125Q260.765625 52.265625 260.15625 52.03125L260.15625 52.03125Q258.1875 51.234375 257.25 49.3125L257.25 49.3125Q257.015625 48.75 256.875 48.09375L256.875 48.09375Q256.6875 47.25 256.171875 46.5L256.171875 46.5Q255.84375 46.078125 255.28125 46.265625L255.28125 46.265625Q254.8125 46.40625 254.4375 46.734375L254.4375 46.734375Q252.328125 48.65625 250.640625 50.859375L250.640625 50.859375Q248.25 53.953125 245.484375 56.625L245.484375 56.625Q245.015625 57.140625 244.5 57.65625L244.5 57.65625Q244.078125 58.03125 243.609375 58.359375L243.609375 58.359375Q243.421875 58.453125 243.28125 58.546875L243.28125 58.546875Q242.859375 58.828125 242.2734375 58.8046875Q241.6875 58.78125 241.359375 58.546875L241.359375 58.546875Q240.46875 57.84375 240.515625 56.765625L240.515625 56.765625Q240.515625 56.25 240.65625 55.78125L240.65625 55.78125Q240.65625 55.78125 240.703125 55.78125L240.703125 55.78125Q240.890625 55.03125 241.21875 54.375L241.21875 54.375Q244.640625 48.046875 249.65625 42.9375L249.65625 42.9375Q250.78125 41.859375 252.046875 41.0625L252.046875 41.0625Q253.78125 39.84375 255.9375 40.078125L255.9375 40.078125Q257.109375 40.265625 258.28125 40.5L258.28125 40.5Q258.375 40.5 258.421875 40.5L258.421875 40.5Q259.03125 40.640625 259.40625 41.1796875Q259.78125 41.71875 259.734375 42.421875L259.734375 42.421875Q259.59375 43.21875 259.5 43.96875L259.5 43.96875Q259.453125 44.203125 259.40625 44.4375L259.40625 44.4375Q259.359375 44.71875 259.3125 45L259.3125 45Q259.21875 45.46875 259.171875 45.9375L259.171875 45.9375Q258.984375 47.71875 260.0625 49.03125Q261.140625 50.34375 262.921875 50.578125L262.921875 50.578125Q263.015625 50.578125 263.296875 50.625L263.296875 50.625Q263.4375 50.625 263.71875 50.671875L263.71875 50.671875Z" stroke-width="1.25" fill="none" stroke="black" stroke-linecap="round" stroke-linejoin="round" transform="translate(15.734639830508474 127.0087890625)"/>
  <path d="M252.421875 43.359375L252.421875 43.359375Q252.328125 43.40625 252.1875 43.453125L252.1875 43.453125Q251.8125 43.59375 251.296875 43.875L251.296875 43.875Q249.09375 45.609375 247.546875 48L247.546875 48Q245.625 50.71875 243.84375 53.484375L243.84375 53.484375Q243.515625 54 243.28125 54.609375L243.28125 54.609375Q243.234375 54.75 243.1875 54.890625L243.1875 54.890625Q242.90625 55.5 243.515625 55.6875L243.515625 55.6875Q243.609375 55.6875 243.75 55.6640625Q243.890625 55.640625 243.984375 55.546875L243.984375 55.546875Q246.046875 54 247.59375 51.984375L247.59375 51.984375Q249.796875 49.171875 252.234375 46.546875L252.234375 46.546875Q252.75 45.984375 253.171875 45.328125L253.171875 45.328125Q253.3125 45 253.453125 44.671875L253.453125 44.671875Q253.5 44.53125 253.546875 44.390625L253.546875 44.390625Q253.640625 44.015625 253.3125 43.6640625Q252.984375 43.3125 252.421875 43.359375L252.421875 43.359375Z" stroke-width="1.25" fill="none" stroke="black" stroke-linecap="round" stroke-linejoin="round" transform="translate(15.734639830508474 127.0087890625)"/>
  <path d="M272.4375 95.578125L272.4375 95.578125Q272.71875 96.1875 272.6484375 96.703125Q272.578125 97.21875 272.296875 97.40625L272.296875 97.40625Q271.96875 97.59375 271.4296875 97.359375Q270.890625 97.125 270.46875 96.375L270.46875 96.375Q270.234375 91.59375 270.5625 83.671875L270.5625 83.671875Q270.515625 80.671875 272.015625 70.59375Q273.515625 60.515625 278.484375 43.875L278.484375 43.875Q282.140625 31.453125 287.015625 19.4296875Q291.890625 7.40625 300.796875 -5.296875L300.796875 -5.296875Q307.21875 -14.0625 311.671875 -18.5625L311.671875 -18.5625Q312.046875 -18.703125 312.4921875 -18.75Q312.9375 -18.796875 313.3125 -18.5625L313.3125 -18.5625Q313.453125 -18.515625 313.59375 -18.234375Q313.734375 -17.953125 313.7109375 -17.25Q313.6875 -16.546875 313.3828125 -15.2578125Q313.078125 -13.96875 312.3046875 -11.8828125Q311.53125 -9.796875 310.171875 -6.75Q308.8125 -3.703125 306.6796875 0.5390625Q304.546875 4.78125 301.546875 10.359375L301.546875 10.359375Q294.328125 24.140625 280.21875 46.21875L280.21875 46.21875Q279.796875 47.25 279.421875 48.28125L279.421875 48.28125Q275.90625 57.84375 273.9375 69.6328125Q271.96875 81.421875 272.4375 95.578125L272.4375 95.578125Z" stroke-width="1.25" fill="none" stroke="black" stroke-linecap="round" stroke-linejoin="round" transform="translate(15.734639830508474 127.0087890625)"/>
  <path d="M298.734375 11.578125L298.734375 11.578125Q300.1875 8.859375 302.484375 4.5234375Q304.78125 0.1875 307.0546875 -4.2890625Q309.328125 -8.765625 310.7109375 -11.953125Q312.09375 -15.140625 311.71875 -15.515625L311.71875 -15.515625Q310.6875 -15.609375 305.2734375 -8.1328125Q299.859375 -0.65625 293.90625 10.125L293.90625 10.125Q288.703125 19.921875 285.515625 28.3125Q282.328125 36.703125 280.640625 42.84375L280.640625 42.84375Q287.625 31.921875 298.734375 11.578125L298.734375 11.578125Z" stroke-width="1.25" fill="none" stroke="black" stroke-linecap="round" stroke-linejoin="round" transform="translate(15.734639830508474 127.0087890625)"/>
  <path d="M510.375 -97.875L510.375 -97.875L510.375 -97.875Q512.109375 -94.40625 512.4375 -88.21875L512.4375 -88.21875Q512.671875 -82.5 510.515625 -75.6328125Q508.359375 -68.765625 503.25 -59.25L503.25 -59.25Q503.25 -59.25 501.75 -56.8125Q500.25 -54.375 496.734375 -49.5703125Q493.21875 -44.765625 487.21875 -37.734375Q481.21875 -30.703125 472.359375 -21.515625L472.359375 -21.515625Q471.515625 -20.625 470.203125 -19.7578125Q468.890625 -18.890625 467.34375 -18.890625L467.34375 -18.890625Q465.84375 -19.03125 464.9765625 -20.3203125Q464.109375 -21.609375 464.953125 -22.828125L464.953125 -22.828125Q465.421875 -23.390625 466.171875 -23.578125Q466.921875 -23.765625 467.71875 -23.765625L467.71875 -23.765625Q468.75 -23.8125 469.640625 -24.09375L469.640625 -24.09375Q470.953125 -24.65625 471.84375 -25.78125L471.84375 -25.78125Q471.9375 -25.875 472.03125 -25.96875L472.03125 -25.96875Q479.015625 -33.140625 485.625 -40.6875L485.625 -40.6875Q495.140625 -51.421875 502.5 -63.703125L502.5 -63.703125Q506.34375 -70.125 508.40625 -77.15625Q510.46875 -84.1875 509.203125 -91.734375L509.203125 -91.734375Q508.6875 -94.734375 507.3515625 -97.59375Q506.015625 -100.453125 503.71875 -102.515625L503.71875 -102.515625Q500.015625 -105.515625 495.375 -106.5L495.375 -106.5Q487.03125 -108.28125 475.265625 -103.1015625Q463.5 -97.921875 449.9765625 -88.1953125Q436.453125 -78.46875 422.9296875 -66.65625Q409.40625 -54.84375 397.5703125 -43.3125Q385.734375 -31.78125 377.3203125 -23.0390625Q368.90625 -14.296875 365.625 -10.6875L365.625 -10.6875Q363 -8.015625 359.6484375 -3.6796875Q356.296875 0.65625 354.234375 5.8359375Q352.171875 11.015625 353.4375 16.3125L353.4375 16.3125Q354.609375 20.25 357.5859375 23.109375Q360.5625 25.96875 363.890625 28.171875L363.890625 28.171875Q373.21875 34.5 383.15625 39.984375L383.15625 39.984375Q387.140625 42.234375 391.40625 44.34375L391.40625 44.34375Q397.59375 47.390625 403.453125 51Q409.3125 54.609375 413.671875 59.8125L413.671875 59.8125Q417.9375 65.15625 419.53125 71.765625L419.53125 71.765625Q420.140625 73.640625 420.5625 79.21875L420.5625 79.21875Q420.796875 82.546875 420.609375 87.3046875Q420.421875 92.0625 419.4375 98.0625L419.4375 98.0625Q421.640625 96.515625 425.671875 93.65625L425.671875 93.65625Q432.5625 88.640625 438.703125 84.1875L438.703125 84.1875Q463.78125 66.046875 477.3515625 56.5078125Q490.921875 46.96875 496.03125 44.484375L496.03125 44.484375Q497.203125 43.96875 498.0234375 44.5546875Q498.84375 45.140625 498.9609375 46.125Q499.078125 47.109375 498.140625 47.859375L498.140625 47.859375Q495.046875 49.59375 491.90625 51.28125L491.90625 51.28125Q485.0625 54.890625 478.59375 59.0625L478.59375 59.0625Q461.8125 70.640625 445.40625 82.640625L445.40625 82.640625Q439.40625 87 433.40625 91.3125L433.40625 91.3125Q430.546875 93.5625 427.546875 95.671875L427.546875 95.671875Q423.421875 98.484375 419.6953125 101.6484375Q415.96875 104.8125 413.4375 109.03125L413.4375 109.03125Q410.25 114.9375 406.3359375 120.4453125Q402.421875 125.953125 397.546875 130.59375L397.546875 130.59375Q396.609375 131.34375 395.671875 132.09375L395.671875 132.09375Q392.953125 134.390625 390.140625 136.59375L390.140625 136.59375Q389.296875 137.578125 385.8515625 139.7578125Q382.40625 141.9375 377.90625 144.2109375Q373.40625 146.484375 369.4453125 147.796875Q365.484375 149.109375 363.703125 148.3828125Q361.921875 147.65625 363.84375 143.8125L363.84375 143.8125Q372.421875 135.234375 381.8203125 127.5234375Q391.21875 119.8125 400.828125 112.453125L400.828125 112.453125Q405.65625 108.703125 410.4375 104.953125L410.4375 104.953125Q413.203125 102.46875 414.5625 98.8828125Q415.921875 95.296875 416.671875 91.78125L416.671875 91.78125Q418.546875 83.953125 417.09375 76.03125L417.09375 76.03125Q414.5625 62.8125 404.109375 54.65625L404.109375 54.65625Q400.78125 52.125 397.078125 50.0859375Q393.375 48.046875 389.578125 46.21875L389.578125 46.21875Q387.5625 45.1875 385.5 44.15625L385.5 44.15625Q374.953125 38.8125 365.0625 32.34375L365.0625 32.34375Q360.328125 29.296875 356.34375 25.640625Q352.359375 21.984375 350.0625 16.6875L350.0625 16.6875Q348.140625 11.578125 351.2578125 4.8515625Q354.375 -1.875 360.4921875 -9.3984375Q366.609375 -16.921875 373.6875 -24.375L373.6875 -24.375Q374.671875 -25.40625 375.75 -26.578125L375.75 -26.578125Q380.390625 -31.875 391.453125 -42.796875L391.453125 -42.796875Q402.984375 -53.90625 413.6953125 -63.28125Q424.40625 -72.65625 431.484375 -78.421875Q438.5625 -84.1875 438.5625 -84.1875L438.5625 -84.1875Q448.40625 -92.203125 459.3984375 -99.234375Q470.390625 -106.265625 482.625 -109.6875L482.625 -109.6875Q486.84375 -110.859375 491.3203125 -111Q495.796875 -111.140625 500.109375 -109.03125L500.109375 -109.03125Q503.90625 -106.921875 506.578125 -103.734375Q509.25 -100.546875 510.375 -97.875Z" stroke-width="1.25" fill="none" stroke="black" stroke-linecap="round" stroke-linejoin="round" transform="translate(15.734639830508474 127.0087890625)"/>
  <path d="M400.921875 122.4375L400.921875 122.4375L400.921875 122.4375Q404.484375 118.6875 406.875 114.09375L406.875 114.09375Q407.390625 113.0625 407.71875 111.890625L407.71875 111.890625Q407.859375 111.421875 408 111L408 111Q401.484375 115.359375 395.390625 120.421875L395.390625 120.421875Q393.140625 122.25 390.890625 124.03125L390.890625 124.03125Q386.765625 127.3125 382.78125 130.734375L382.78125 130.734375Q381.515625 131.8125 380.25 132.890625L380.25 132.890625Q378.65625 134.203125 377.109375 135.5625L377.109375 135.5625Q375.09375 137.34375 372.984375 139.078125L372.984375 139.078125Q370.3125 141.1875 368.15625 143.90625L368.15625 143.90625Q376.359375 143.015625 383.203125 138.421875L383.203125 138.421875Q387.5625 135.703125 391.265625 132.140625L391.265625 132.140625Q396.140625 127.3125 400.921875 122.4375Z" stroke-width="1.25" fill="none" stroke="black" stroke-linecap="round" stroke-linejoin="round" transform="translate(15.734639830508474 127.0087890625)"/>
  <path d="M495.421875 52.78125L495.421875 52.78125Q495.421875 52.59375 495.421875 52.453125L495.421875 52.453125Q495.375 52.078125 495.46875 51.75L495.46875 51.75Q496.546875 46.78125 498.515625 42.046875L498.515625 42.046875Q498.75 41.484375 499.21875 41.015625L499.21875 41.015625Q499.3125 40.921875 499.359375 40.828125L499.359375 40.828125Q499.6875 40.5 500.2734375 40.40625Q500.859375 40.3125 501.234375 40.546875L501.234375 40.546875Q501.9375 41.015625 501.9375 41.859375L501.9375 41.859375Q501.9375 41.90625 501.9375 42L501.9375 42Q501.9375 42.234375 501.890625 42.46875Q501.84375 42.703125 501.703125 42.796875L501.703125 42.796875Q501.609375 42.890625 501.46875 42.8671875Q501.328125 42.84375 501.234375 42.84375L501.234375 42.84375Q501.234375 42.84375 501.234375 42.84375L501.234375 42.84375Q500.671875 42.75 500.0625 43.8046875Q499.453125 44.859375 498.9140625 46.359375Q498.375 47.859375 498.046875 49.125Q497.71875 50.390625 497.765625 50.8125L497.765625 50.8125Q497.8125 51 497.8828125 51.1171875Q497.953125 51.234375 498 51.28125Q498.046875 51.328125 498.046875 51.328125L498.046875 51.328125Q498.1875 51.46875 498.421875 51.46875L498.421875 51.46875Q498.65625 51.515625 498.890625 51.375L498.890625 51.375Q499.734375 50.8125 500.296875 49.96875L500.296875 49.96875Q502.171875 47.53125 504.421875 45.46875L504.421875 45.46875Q505.40625 44.625 506.4375 43.921875L506.4375 43.921875Q506.8125 43.734375 507.28125 43.59375L507.28125 43.59375Q507.328125 43.59375 507.375 43.546875L507.375 43.546875Q507.984375 43.40625 508.6640625 43.640625Q509.34375 43.875 509.671875 44.390625L509.671875 44.390625Q509.953125 44.90625 510.28125 45.515625L510.28125 45.515625Q510.65625 46.265625 511.125 47.0625L511.125 47.0625Q512.15625 48.65625 514.078125 48.703125L514.078125 48.703125Q515.671875 48.703125 517.03125 48.046875L517.03125 48.046875Q518.34375 47.4375 519.65625 46.78125L519.65625 46.78125Q520.640625 46.265625 521.625 45.796875L521.625 45.796875Q522.984375 45.140625 524.390625 44.53125L524.390625 44.53125Q524.859375 44.34375 525.375 44.390625L525.375 44.390625Q525.9375 44.4375 526.078125 45L526.078125 45Q526.078125 45.09375 526.078125 45.234375Q526.078125 45.375 526.03125 45.46875L526.03125 45.46875Q525.140625 46.78125 523.6875 47.390625L523.6875 47.390625Q520.265625 48.984375 516.703125 50.4375L516.703125 50.4375Q515.53125 50.90625 514.265625 51.046875L514.265625 51.046875Q511.546875 51.375 509.671875 49.3125L509.671875 49.3125Q509.203125 48.75 508.734375 48.09375L508.734375 48.09375Q508.3125 47.484375 507.84375 46.921875L507.84375 46.921875Q507.703125 46.78125 507.421875 46.734375Q507.140625 46.6875 506.90625 46.734375L506.90625 46.734375Q506.390625 46.78125 505.96875 47.109375L505.96875 47.109375Q504.65625 48.28125 503.390625 49.546875L503.390625 49.546875Q502.5 50.484375 501.609375 51.421875L501.609375 51.421875Q500.578125 52.5 499.5 53.578125L499.5 53.578125Q498.75 54.28125 497.765625 54.609375L497.765625 54.609375Q496.96875 54.84375 496.2890625 54.4453125Q495.609375 54.046875 495.46875 53.25L495.46875 53.25Q495.46875 53.109375 495.421875 52.921875L495.421875 52.921875Q495.421875 52.828125 495.421875 52.78125L495.421875 52.78125Z" stroke-width="1.25" fill="none" stroke="black" stroke-linecap="round" stroke-linejoin="round" transform="translate(15.734639830508474 127.0087890625)"/>
  <path d="M525.703125 48.046875L525.703125 48.046875Q526.078125 47.8125 526.5 47.625L526.5 47.625Q527.4375 47.0625 528.46875 46.734375L528.46875 46.734375Q529.640625 46.5 530.578125 47.0390625Q531.515625 47.578125 532.125 48.609375L532.125 48.609375Q532.6875 49.546875 533.0625 50.625L533.0625 50.625Q533.25 51.046875 533.390625 51.46875L533.390625 51.46875Q533.859375 52.59375 534.796875 53.6484375Q535.734375 54.703125 537.140625 54.140625L537.140625 54.140625Q537.328125 54.046875 537.515625 54L537.515625 54Q538.03125 53.765625 538.5 53.484375L538.5 53.484375Q538.78125 53.25 539.109375 53.0625L539.109375 53.0625Q540.9375 51.84375 542.625 50.53125L542.625 50.53125Q546 48.046875 549.609375 45.9375L549.609375 45.9375Q550.171875 45.609375 550.78125 45.234375L550.78125 45.234375Q551.625 44.765625 552.609375 44.390625L552.609375 44.390625Q553.078125 44.25 553.59375 44.296875L553.59375 44.296875Q554.203125 44.296875 554.25 44.859375L554.25 44.859375Q554.25 45 554.2265625 45.1171875Q554.203125 45.234375 554.15625 45.328125L554.15625 45.328125Q554.0625 45.421875 553.96875 45.46875L553.96875 45.46875Q553.5 45.9375 552.984375 46.265625L552.984375 46.265625Q548.484375 48.703125 544.359375 51.75L544.359375 51.75Q541.875 53.53125 539.34375 55.265625L539.34375 55.265625Q538.5 55.78125 537.5625 56.25L537.5625 56.25Q535.125 57.28125 533.578125 55.5234375Q532.03125 53.765625 531.1875 51.75L531.1875 51.75Q531.09375 51.609375 531.046875 51.515625L531.046875 51.515625Q531.046875 51.46875 531 51.421875L531 51.421875Q530.71875 50.765625 530.25 50.203125L530.25 50.203125Q529.921875 49.828125 529.4296875 49.6171875Q528.9375 49.40625 528.421875 49.546875L528.421875 49.546875Q527.15625 49.875 526.21875 50.71875L526.21875 50.71875Q524.859375 51.9375 523.96875 53.484375L523.96875 53.484375Q523.359375 54.421875 522.796875 55.40625L522.796875 55.40625Q522.234375 56.4375 521.625 57.421875L521.625 57.421875Q521.203125 57.984375 520.640625 58.453125L520.640625 58.453125Q520.59375 58.5 520.59375 58.5L520.59375 58.5Q520.171875 58.875 519.609375 58.640625L519.609375 58.640625Q519.140625 58.40625 519.09375 57.84375L519.09375 57.84375Q519.046875 57.515625 519.09375 57.328125L519.09375 57.328125Q519.140625 56.90625 519.28125 56.625Q519.421875 56.34375 519.421875 56.296875L519.421875 56.296875Q519.84375 55.40625 523.1484375 47.2734375Q526.453125 39.140625 530.390625 29.1328125Q534.328125 19.125 536.671875 12.609375L536.671875 12.609375Q539.015625 5.859375 541.640625 -2.578125L541.640625 -2.578125Q543.984375 -9.9375 545.8125 -15.3046875Q547.640625 -20.671875 548.296875 -20.859375L548.296875 -20.859375Q548.578125 -20.8125 548.765625 -20.7421875Q548.953125 -20.671875 549.046875 -20.6015625Q549.140625 -20.53125 549.140625 -20.53125L549.140625 -20.53125Q549.375 -20.25 549.46875 -19.9453125Q549.5625 -19.640625 549.5625 -19.359375L549.5625 -19.359375Q544.546875 -3.65625 538.78125 12.703125L538.78125 12.703125Q532.359375 30.9375 525.703125 48.046875L525.703125 48.046875Z" stroke-width="1.25" fill="none" stroke="black" stroke-linecap="round" stroke-linejoin="round" transform="translate(15.734639830508474 127.0087890625)"/>
  <path d="M568.6875 50.671875L568.6875 50.671875Q568.921875 50.625 569.203125 50.625L569.203125 50.625Q570 50.53125 570.890625 50.34375L570.890625 50.34375Q573.609375 49.59375 576.046875 48.1875L576.046875 48.1875Q577.125 47.578125 578.15625 46.921875L578.15625 46.921875Q579.28125 46.265625 580.453125 45.609375L580.453125 45.609375Q580.546875 45.5625 580.640625 45.46875L580.640625 45.46875Q581.859375 44.71875 583.21875 44.34375L583.21875 44.34375Q583.78125 44.203125 584.109375 44.625L584.109375 44.625Q584.390625 45.09375 584.0625 45.5625L584.0625 45.5625Q583.921875 45.796875 583.734375 45.9375L583.734375 45.9375Q579.75 48.65625 575.390625 50.765625L575.390625 50.765625Q573.09375 51.890625 570.609375 52.546875L570.609375 52.546875Q568.59375 53.0625 566.578125 52.5L566.578125 52.5Q566.484375 52.453125 566.390625 52.453125L566.390625 52.453125Q565.734375 52.265625 565.125 52.03125L565.125 52.03125Q563.15625 51.234375 562.21875 49.3125L562.21875 49.3125Q561.984375 48.75 561.84375 48.09375L561.84375 48.09375Q561.65625 47.25 561.140625 46.5L561.140625 46.5Q560.8125 46.078125 560.25 46.265625L560.25 46.265625Q559.78125 46.40625 559.40625 46.734375L559.40625 46.734375Q557.296875 48.65625 555.609375 50.859375L555.609375 50.859375Q553.21875 53.953125 550.453125 56.625L550.453125 56.625Q549.984375 57.140625 549.46875 57.65625L549.46875 57.65625Q549.046875 58.03125 548.578125 58.359375L548.578125 58.359375Q548.390625 58.453125 548.25 58.546875L548.25 58.546875Q547.828125 58.828125 547.2421875 58.8046875Q546.65625 58.78125 546.328125 58.546875L546.328125 58.546875Q545.4375 57.84375 545.484375 56.765625L545.484375 56.765625Q545.484375 56.25 545.625 55.78125L545.625 55.78125Q545.625 55.78125 545.671875 55.78125L545.671875 55.78125Q545.859375 55.03125 546.1875 54.375L546.1875 54.375Q549.609375 48.046875 554.625 42.9375L554.625 42.9375Q555.75 41.859375 557.015625 41.0625L557.015625 41.0625Q558.75 39.84375 560.90625 40.078125L560.90625 40.078125Q562.078125 40.265625 563.25 40.5L563.25 40.5Q563.34375 40.5 563.390625 40.5L563.390625 40.5Q564 40.640625 564.375 41.1796875Q564.75 41.71875 564.703125 42.421875L564.703125 42.421875Q564.5625 43.21875 564.46875 43.96875L564.46875 43.96875Q564.421875 44.203125 564.375 44.4375L564.375 44.4375Q564.328125 44.71875 564.28125 45L564.28125 45Q564.1875 45.46875 564.140625 45.9375L564.140625 45.9375Q563.953125 47.71875 565.03125 49.03125Q566.109375 50.34375 567.890625 50.578125L567.890625 50.578125Q567.984375 50.578125 568.265625 50.625L568.265625 50.625Q568.40625 50.625 568.6875 50.671875L568.6875 50.671875Z" stroke-width="1.25" fill="none" stroke="black" stroke-linecap="round" stroke-linejoin="round" transform="translate(15.734639830508474 127.0087890625)"/>
  <path d="M557.390625 43.359375L557.390625 43.359375Q557.296875 43.40625 557.15625 43.453125L557.15625 43.453125Q556.78125 43.59375 556.265625 43.875L556.265625 43.875Q554.0625 45.609375 552.515625 48L552.515625 48Q550.59375 50.71875 548.8125 53.484375L548.8125 53.484375Q548.484375 54 548.25 54.609375L548.25 54.609375Q548.203125 54.75 548.15625 54.890625L548.15625 54.890625Q547.875 55.5 548.484375 55.6875L548.484375 55.6875Q548.578125 55.6875 548.71875 55.6640625Q548.859375 55.640625 548.953125 55.546875L548.953125 55.546875Q551.015625 54 552.5625 51.984375L552.5625 51.984375Q554.765625 49.171875 557.203125 46.546875L557.203125 46.546875Q557.71875 45.984375 558.140625 45.328125L558.140625 45.328125Q558.28125 45 558.421875 44.671875L558.421875 44.671875Q558.46875 44.53125 558.515625 44.390625L558.515625 44.390625Q558.609375 44.015625 558.28125 43.6640625Q557.953125 43.3125 557.390625 43.359375L557.390625 43.359375Z" stroke-width="1.25" fill="none" stroke="black" stroke-linecap="round" stroke-linejoin="round" transform="translate(15.734639830508474 127.0087890625)"/>
  <path d="M581.34375 51.046875L581.34375 51.046875Q581.578125 47.15625 583.359375 44.109375L583.359375 44.109375Q583.59375 43.78125 583.875 43.546875L583.875 43.546875Q583.96875 43.453125 584.0625 43.359375L584.0625 43.359375Q584.25 43.125 584.625 43.125Q585 43.125 585.3515625 43.3125Q585.703125 43.5 585.796875 43.734375L585.796875 43.734375Q586.078125 44.53125 585.84375 45.234375L585.84375 45.234375Q585.46875 45.984375 585.046875 46.6875L585.046875 46.6875Q584.71875 47.296875 584.390625 47.90625L584.390625 47.90625Q583.546875 49.546875 583.78125 51.375L583.78125 51.375Q584.0625 53.0625 585.84375 53.296875L585.84375 53.296875Q586.59375 53.34375 587.34375 53.203125L587.34375 53.203125Q590.296875 52.5 593.0625 51.09375L593.0625 51.09375Q600.65625 47.53125 608.4375 44.34375L608.4375 44.34375Q609.140625 44.0625 609.890625 44.203125L609.890625 44.203125Q610.453125 44.34375 610.59375 44.859375L610.59375 44.859375Q610.6875 45.421875 610.265625 45.796875L610.265625 45.796875Q609.890625 46.125 609.421875 46.3125L609.421875 46.3125Q602.71875 48.75 596.34375 51.9375L596.34375 51.9375Q594.046875 53.015625 591.703125 54L591.703125 54Q589.125 55.078125 586.3125 55.5L586.3125 55.5Q585.5625 55.640625 584.8125 55.59375L584.8125 55.59375Q581.859375 55.171875 581.390625 52.359375L581.390625 52.359375Q581.34375 51.796875 581.34375 51.328125L581.34375 51.328125Q581.34375 51.1875 581.34375 51.046875L581.34375 51.046875Z" stroke-width="1.25" fill="none" stroke="black" stroke-linecap="round" stroke-linejoin="round" transform="translate(15.734639830508474 127.0087890625)"/>
  <path d="M587.859375 34.453125L587.859375 34.453125Q587.765625 33.703125 588.28125 33.1171875Q588.796875 32.53125 589.59375 32.53125L589.59375 32.53125Q590.109375 32.53125 590.390625 33L590.390625 33Q590.390625 33 590.390625 33L590.390625 33Q590.4375 33.140625 590.484375 33.2578125Q590.53125 33.375 590.53125 33.46875L590.53125 33.46875Q590.53125 34.21875 590.4375 34.921875L590.4375 34.921875Q590.34375 35.25 589.9921875 35.4609375Q589.640625 35.671875 589.265625 35.625L589.265625 35.625Q588.75 35.578125 588.3515625 35.25Q587.953125 34.921875 587.859375 34.453125L587.859375 34.453125Z" stroke-width="1.25" fill="none" stroke="black" stroke-linecap="round" stroke-linejoin="round" transform="translate(15.734639830508474 127.0087890625)"/>
  <path d="M603.703125 95.578125L603.703125 95.578125Q603.984375 96.1875 603.9140625 96.703125Q603.84375 97.21875 603.5625 97.40625L603.5625 97.40625Q603.234375 97.59375 602.6953125 97.359375Q602.15625 97.125 601.734375 96.375L601.734375 96.375Q601.5 91.59375 601.828125 83.671875L601.828125 83.671875Q601.78125 80.671875 603.28125 70.59375Q604.78125 60.515625 609.75 43.875L609.75 43.875Q613.40625 31.453125 618.28125 19.4296875Q623.15625 7.40625 632.0625 -5.296875L632.0625 -5.296875Q638.484375 -14.0625 642.9375 -18.5625L642.9375 -18.5625Q643.3125 -18.703125 643.7578125 -18.75Q644.203125 -18.796875 644.578125 -18.5625L644.578125 -18.5625Q644.71875 -18.515625 644.859375 -18.234375Q645 -17.953125 644.9765625 -17.25Q644.953125 -16.546875 644.6484375 -15.2578125Q644.34375 -13.96875 643.5703125 -11.8828125Q642.796875 -9.796875 641.4375 -6.75Q640.078125 -3.703125 637.9453125 0.5390625Q635.8125 4.78125 632.8125 10.359375L632.8125 10.359375Q625.59375 24.140625 611.484375 46.21875L611.484375 46.21875Q611.0625 47.25 610.6875 48.28125L610.6875 48.28125Q607.171875 57.84375 605.203125 69.6328125Q603.234375 81.421875 603.703125 95.578125L603.703125 95.578125Z" stroke-width="1.25" fill="none" stroke="black" stroke-linecap="round" stroke-linejoin="round" transform="translate(15.734639830508474 127.0087890625)"/>
  <path d="M630 11.578125L630 11.578125Q631.453125 8.859375 633.75 4.5234375Q636.046875 0.1875 638.3203125 -4.2890625Q640.59375 -8.765625 641.9765625 -11.953125Q643.359375 -15.140625 642.984375 -15.515625L642.984375 -15.515625Q641.953125 -15.609375 636.5390625 -8.1328125Q631.125 -0.65625 625.171875 10.125L625.171875 10.125Q619.96875 19.921875 616.78125 28.3125Q613.59375 36.703125 611.90625 42.84375L611.90625 42.84375Q618.890625 31.921875 630 11.578125L630 11.578125Z" stroke-width="1.25" fill="none" stroke="black" stroke-linecap="round" stroke-linejoin="round" transform="translate(15.734639830508474 127.0087890625)"/>
</svg>
